<svg width="90" height="90" viewBox="0 0 90 90" fill="none" xmlns="http://www.w3.org/2000/svg">
<path d="M44.9997 79.0048C63.7798 79.0048 79.004 63.7805 79.004 45.0004C79.004 26.2204 63.7798 10.9961 44.9997 10.9961C26.2196 10.9961 10.9954 26.2204 10.9954 45.0004C10.9954 63.7805 26.2196 79.0048 44.9997 79.0048Z" fill="url(#paint0_linear_1484_785)"/>
<path d="M67.5 67.5C79.9264 55.0736 79.9264 34.9264 67.5 22.5C55.0736 10.0736 34.9264 10.0736 22.5 22.5C10.0736 34.9264 10.0736 55.0736 22.5 67.5C34.9264 79.9264 55.0736 79.9264 67.5 67.5Z" fill="url(#paint1_linear_1484_785)"/>
<path d="M66.6122 66.6123C78.5483 54.6761 78.5483 35.3239 66.6122 23.3877C54.676 11.4516 35.3238 11.4516 23.3877 23.3877C11.4515 35.3239 11.4515 54.6761 23.3876 66.6123C35.3238 78.5484 54.6761 78.5484 66.6122 66.6123Z" fill="url(#paint2_linear_1484_785)"/>
<path d="M48.9353 22.4455C52.2791 18.7428 58.4196 21.2862 58.1664 26.2687C58.0066 29.4067 60.5947 31.9948 63.7313 31.8337C68.7138 31.579 71.2572 37.7209 67.5545 41.0647C65.2224 43.1707 65.2224 46.8301 67.5545 48.936C71.2572 52.2799 68.7138 58.4204 63.7313 58.1671C60.5933 58.0073 58.0052 60.5954 58.1664 63.732C58.421 68.7146 52.2791 71.258 48.9353 67.5553C46.8293 65.2231 43.1699 65.2231 41.064 67.5553C37.7202 71.258 31.5797 68.7146 31.8329 63.732C31.9927 60.594 29.4046 58.0059 26.268 58.1671C21.2855 58.4217 18.742 52.2799 22.4448 48.936C24.7769 46.8301 24.7769 43.1707 22.4448 41.0647C18.742 37.7209 21.2855 31.5804 26.268 31.8337C29.406 31.9935 31.9941 29.4054 31.8329 26.2687C31.5783 21.2862 37.7202 18.7428 41.064 22.4455C43.1699 24.7776 46.8293 24.7776 48.9353 22.4455Z" fill="url(#paint3_linear_1484_785)"/>
<path d="M44.9996 61.2115C53.9528 61.2115 61.2108 53.9535 61.2108 45.0003C61.2108 36.0471 53.9528 28.7891 44.9996 28.7891C36.0464 28.7891 28.7883 36.0471 28.7883 45.0003C28.7883 53.9535 36.0464 61.2115 44.9996 61.2115Z" fill="url(#paint4_linear_1484_785)"/>
<path d="M46.0425 36.9596L48.0279 40.9833C48.1972 41.3259 48.525 41.5643 48.9028 41.6198L53.3436 42.2644C54.2971 42.4026 54.6777 43.5754 53.9883 44.2472L50.7745 47.3797C50.5009 47.6465 50.375 48.0312 50.44 48.409L51.1984 52.8322C51.3609 53.7816 50.3641 54.5062 49.5109 54.0579L45.5387 51.9695C45.2001 51.7921 44.7952 51.7921 44.4566 51.9695L40.4843 54.0579C39.6311 54.5062 38.6343 53.7816 38.7969 52.8322L39.5553 48.409C39.6203 48.0325 39.4943 47.6465 39.2208 47.3797L36.007 44.2472C35.3176 43.5741 35.6982 42.4026 36.6516 42.2644L41.0925 41.6198C41.4717 41.5643 41.798 41.3273 41.9673 40.9833L43.9528 36.9596C44.3794 36.0955 45.6118 36.0955 46.0384 36.9596H46.0425Z" fill="#EDF5FE"/>
<defs>
<linearGradient id="paint0_linear_1484_785" x1="44.9997" y1="79.0034" x2="44.9997" y2="10.9961" gradientUnits="userSpaceOnUse">
<stop stop-color="#15E38D"/>
<stop offset="1" stop-color="#98F9C7"/>
</linearGradient>
<linearGradient id="paint1_linear_1484_785" x1="45.0003" y1="76.8199" x2="45.0003" y2="13.1803" gradientUnits="userSpaceOnUse">
<stop stop-color="#08C88C"/>
<stop offset="1" stop-color="#06986E"/>
</linearGradient>
<linearGradient id="paint2_linear_1484_785" x1="45.0002" y1="75.5644" x2="45.0002" y2="14.4357" gradientUnits="userSpaceOnUse">
<stop stop-color="#40D9D8"/>
<stop offset="1" stop-color="#05C78A"/>
</linearGradient>
<linearGradient id="paint3_linear_1484_785" x1="20.6828" y1="45.0004" x2="69.3165" y2="45.0004" gradientUnits="userSpaceOnUse">
<stop stop-color="white"/>
<stop offset="1" stop-color="#84F6BE"/>
</linearGradient>
<linearGradient id="paint4_linear_1484_785" x1="44.9996" y1="61.2115" x2="44.9996" y2="28.7891" gradientUnits="userSpaceOnUse">
<stop stop-color="#15E28C"/>
<stop offset="1" stop-color="#0B8767"/>
</linearGradient>
</defs>
</svg>
