<svg width="90" height="90" viewBox="0 0 90 90" fill="none" xmlns="http://www.w3.org/2000/svg">
<path d="M44.9994 79.0048C63.7795 79.0048 79.0038 63.7805 79.0038 45.0004C79.0038 26.2204 63.7795 10.9961 44.9994 10.9961C26.2194 10.9961 10.9951 26.2204 10.9951 45.0004C10.9951 63.7805 26.2194 79.0048 44.9994 79.0048Z" fill="url(#paint0_linear_1484_778)"/>
<path d="M67.5 67.5C79.9264 55.0736 79.9264 34.9264 67.5 22.5C55.0736 10.0736 34.9264 10.0736 22.5 22.5C10.0736 34.9264 10.0736 55.0736 22.5 67.5C34.9264 79.9264 55.0736 79.9264 67.5 67.5Z" fill="url(#paint1_linear_1484_778)"/>
<path d="M66.6124 66.6123C78.5485 54.6761 78.5485 35.3239 66.6124 23.3877C54.6763 11.4516 35.324 11.4516 23.3879 23.3877C11.4518 35.3239 11.4518 54.6761 23.3879 66.6123C35.324 78.5484 54.6763 78.5484 66.6124 66.6123Z" fill="url(#paint2_linear_1484_778)"/>
<path d="M48.9355 22.446C52.2794 18.7433 58.4199 21.2867 58.1666 26.2692C58.0068 29.4072 60.5949 31.9953 63.7315 31.8341C68.7141 31.5795 71.2575 37.7214 67.5548 41.0652C65.2226 43.1712 65.2226 46.8306 67.5548 48.9365C71.2575 52.2803 68.7141 58.4208 63.7315 58.1676C60.5935 58.0078 58.0054 60.5959 58.1666 63.7325C58.4212 68.715 52.2794 71.2585 48.9355 67.5557C46.8296 65.2236 43.1702 65.2236 41.0642 67.5557C37.7204 71.2585 31.5799 68.715 31.8332 63.7325C31.993 60.5945 29.4049 58.0064 26.2683 58.1676C21.2857 58.4222 18.7423 52.2803 22.445 48.9365C24.7771 46.8306 24.7771 43.1712 22.445 41.0652C18.7423 37.7214 21.2857 31.5809 26.2683 31.8341C29.4062 31.9939 31.9943 29.4058 31.8332 26.2692C31.5786 21.2867 37.7204 18.7433 41.0642 22.446C43.1702 24.7781 46.8296 24.7781 48.9355 22.446Z" fill="url(#paint3_linear_1484_778)"/>
<path d="M61.2109 44.9989C61.2109 45.4703 61.192 45.9375 61.15 46.3993C60.4417 54.6973 53.4818 61.2115 45.001 61.2115C36.5203 61.2115 29.559 54.6986 28.8507 46.3993C28.8088 45.9375 28.7898 45.4703 28.7898 44.9989C28.7898 36.0469 36.0476 28.7891 45.0024 28.7891C53.9572 28.7891 61.2123 36.0469 61.2123 44.9989H61.2109Z" fill="url(#paint4_linear_1484_778)"/>
<path d="M46.0423 36.9605L48.0277 40.9842C48.197 41.3269 48.5247 41.5652 48.9026 41.6208L53.3434 42.2654C54.2968 42.4036 54.6774 43.5764 53.9881 44.2482L50.7743 47.3807C50.5007 47.6475 50.3747 48.0321 50.4397 48.41L51.1982 52.8332C51.3607 53.7826 50.3639 54.5071 49.5107 54.0589L45.5384 51.9705C45.1999 51.7931 44.7949 51.7931 44.4563 51.9705L40.4841 54.0589C39.6309 54.5071 38.6341 53.7826 38.7966 52.8332L39.555 48.41C39.6201 48.0335 39.4941 47.6475 39.2205 47.3807L36.0067 44.2482C35.3174 43.5751 35.6979 42.4036 36.6514 42.2654L41.0922 41.6208C41.4714 41.5652 41.7978 41.3282 41.9671 40.9842L43.9525 36.9605C44.3791 36.0965 45.6116 36.0965 46.0382 36.9605H46.0423Z" fill="#EDF5FE"/>
<defs>
<linearGradient id="paint0_linear_1484_778" x1="44.9994" y1="79.0034" x2="44.9994" y2="10.9961" gradientUnits="userSpaceOnUse">
<stop stop-color="#808ABB"/>
<stop offset="1" stop-color="#BDCAE5"/>
</linearGradient>
<linearGradient id="paint1_linear_1484_778" x1="44.9988" y1="76.8199" x2="44.9988" y2="13.1803" gradientUnits="userSpaceOnUse">
<stop stop-color="#5F678F"/>
<stop offset="1" stop-color="#51587C"/>
</linearGradient>
<linearGradient id="paint2_linear_1484_778" x1="44.999" y1="75.5644" x2="44.999" y2="14.4357" gradientUnits="userSpaceOnUse">
<stop stop-color="#AEBBDA"/>
<stop offset="1" stop-color="#828DBF"/>
</linearGradient>
<linearGradient id="paint3_linear_1484_778" x1="20.683" y1="45.0009" x2="69.3167" y2="45.0009" gradientUnits="userSpaceOnUse">
<stop stop-color="white"/>
<stop offset="1" stop-color="#AEBBDB"/>
</linearGradient>
<linearGradient id="paint4_linear_1484_778" x1="44.9997" y1="61.2115" x2="44.9997" y2="28.7891" gradientUnits="userSpaceOnUse">
<stop stop-color="#C2CEE7"/>
<stop offset="1" stop-color="#4B5075"/>
</linearGradient>
</defs>
</svg>
