<svg width="90" height="90" viewBox="0 0 90 90" fill="none" xmlns="http://www.w3.org/2000/svg">
<path d="M44.9999 79.0038C63.78 79.0038 79.0042 63.7795 79.0042 44.9994C79.0042 26.2194 63.78 10.9951 44.9999 10.9951C26.2199 10.9951 10.9956 26.2194 10.9956 44.9994C10.9956 63.7795 26.2199 79.0038 44.9999 79.0038Z" fill="url(#paint0_linear_1484_792)"/>
<path d="M67.5 67.5C79.9264 55.0736 79.9264 34.9264 67.5 22.5C55.0736 10.0736 34.9264 10.0736 22.5 22.5C10.0736 34.9264 10.0736 55.0736 22.5 67.5C34.9264 79.9264 55.0736 79.9264 67.5 67.5Z" fill="url(#paint1_linear_1484_792)"/>
<path d="M66.6122 66.6123C78.5483 54.6761 78.5483 35.3239 66.6122 23.3877C54.676 11.4516 35.3238 11.4516 23.3877 23.3877C11.4515 35.3239 11.4515 54.6761 23.3876 66.6123C35.3238 78.5484 54.6761 78.5484 66.6122 66.6123Z" fill="url(#paint2_linear_1484_792)"/>
<path d="M63.5381 86.782C63.7263 88.6929 61.8005 90.1096 60.0318 89.3606L51.2747 85.6511L45.0475 83.0143L38.8203 85.6511L29.9672 89.4013C28.2214 90.1407 26.3118 88.7688 26.4554 86.8781L28.6656 57.8076H60.6913L63.5381 86.782Z" fill="url(#paint3_linear_1484_792)"/>
<path d="M51.2745 64.168V85.6516L45.0474 83.0147L38.8188 85.6516V64.168H51.2745Z" fill="#EDF5FE"/>
<path d="M48.9343 25.2453C52.2781 21.5426 58.4186 24.086 58.1654 29.0685C58.0056 32.2065 60.5937 34.7946 63.7303 34.6335C68.7128 34.3788 71.2563 40.5207 67.5536 43.8645C65.2214 45.9705 65.2214 49.6299 67.5536 51.7358C71.2563 55.0797 68.7128 61.2202 63.7303 60.9669C60.5923 60.8071 58.0042 63.3952 58.1654 66.5318C58.42 71.5144 52.2781 74.0578 48.9343 70.3551C46.8283 68.0229 43.169 68.0229 41.063 70.3551C37.7192 74.0578 31.5787 71.5144 31.832 66.5318C31.9918 63.3938 29.4036 60.8057 26.267 60.9669C21.2845 61.2215 18.7411 55.0797 22.4438 51.7358C24.7759 49.6299 24.7759 45.9705 22.4438 43.8645C18.7411 40.5207 21.2845 34.3802 26.267 34.6335C29.405 34.7933 31.9931 32.2052 31.832 29.0685C31.5773 24.086 37.7192 21.5426 41.063 25.2453C43.169 27.5774 46.8283 27.5774 48.9343 25.2453Z" fill="url(#paint4_linear_1484_792)"/>
<path d="M48.9343 22.4445C52.2781 18.7418 58.4186 21.2852 58.1654 26.2678C58.0056 29.4057 60.5937 31.9938 63.7303 31.8327C68.7128 31.5781 71.2563 37.7199 67.5536 41.0637C65.2214 43.1697 65.2214 46.8291 67.5536 48.9351C71.2563 52.2789 68.7128 58.4194 63.7303 58.1661C60.5923 58.0063 58.0042 60.5944 58.1654 63.731C58.42 68.7136 52.2781 71.257 48.9343 67.5543C46.8283 65.2221 43.169 65.2221 41.063 67.5543C37.7192 71.257 31.5787 68.7136 31.832 63.731C31.9918 60.5931 29.4036 58.005 26.267 58.1661C21.2845 58.4207 18.7411 52.2789 22.4438 48.9351C24.7759 46.8291 24.7759 43.1697 22.4438 41.0637C18.7411 37.7199 21.2845 31.5794 26.267 31.8327C29.405 31.9925 31.9931 29.4044 31.832 26.2678C31.5773 21.2852 37.7192 18.7418 41.063 22.4445C43.169 24.7767 46.8283 24.7767 48.9343 22.4445Z" fill="url(#paint5_linear_1484_792)"/>
<path d="M45.0001 61.2115C53.9533 61.2115 61.2113 53.9535 61.2113 45.0003C61.2113 36.0471 53.9533 28.7891 45.0001 28.7891C36.0469 28.7891 28.7888 36.0471 28.7888 45.0003C28.7888 53.9535 36.0469 61.2115 45.0001 61.2115Z" fill="url(#paint6_linear_1484_792)"/>
<path d="M46.0415 36.9596L48.027 40.9833C48.1962 41.3259 48.524 41.5643 48.9018 41.6198L53.3427 42.2644C54.2961 42.4026 54.6767 43.5754 53.9873 44.2472L50.7735 47.3797C50.5 47.6465 50.374 48.0312 50.439 48.409L51.1974 52.8322C51.36 53.7816 50.3632 54.5062 49.5099 54.0579L45.5377 51.9695C45.1991 51.7921 44.7942 51.7921 44.4556 51.9695L40.4834 54.0579C39.6302 54.5062 38.6334 53.7816 38.7959 52.8322L39.5543 48.409C39.6193 48.0325 39.4934 47.6465 39.2198 47.3797L36.006 44.2472C35.3166 43.5741 35.6972 42.4026 36.6506 42.2644L41.0915 41.6198C41.4707 41.5643 41.7971 41.3273 41.9664 40.9833L43.9518 36.9596C44.3784 36.0955 45.6109 36.0955 46.0375 36.9596H46.0415Z" fill="#EDF5FE"/>
<defs>
<linearGradient id="paint0_linear_1484_792" x1="44.9999" y1="79.0024" x2="44.9999" y2="10.9951" gradientUnits="userSpaceOnUse">
<stop stop-color="#F6AE17"/>
<stop offset="1" stop-color="#FEDE86"/>
</linearGradient>
<linearGradient id="paint1_linear_1484_792" x1="44.9999" y1="76.8199" x2="44.9999" y2="13.1803" gradientUnits="userSpaceOnUse">
<stop stop-color="#FE9746"/>
<stop offset="1" stop-color="#FE8212"/>
</linearGradient>
<linearGradient id="paint2_linear_1484_792" x1="44.9998" y1="75.5644" x2="44.9998" y2="14.4357" gradientUnits="userSpaceOnUse">
<stop stop-color="#FE8354"/>
<stop offset="1" stop-color="#FED664"/>
</linearGradient>
<linearGradient id="paint3_linear_1484_792" x1="45.0001" y1="89.6044" x2="45.0001" y2="57.8076" gradientUnits="userSpaceOnUse">
<stop stop-color="#FCD464"/>
<stop offset="1" stop-color="#F1B25D"/>
</linearGradient>
<linearGradient id="paint4_linear_1484_792" x1="45" y1="72.117" x2="45" y2="23.4833" gradientUnits="userSpaceOnUse">
<stop/>
<stop offset="1"/>
</linearGradient>
<linearGradient id="paint5_linear_1484_792" x1="20.6832" y1="44.9994" x2="69.3155" y2="44.9994" gradientUnits="userSpaceOnUse">
<stop stop-color="white"/>
<stop offset="1" stop-color="#FDD674"/>
</linearGradient>
<linearGradient id="paint6_linear_1484_792" x1="45.0001" y1="61.2115" x2="45.0001" y2="28.7891" gradientUnits="userSpaceOnUse">
<stop stop-color="#FED464"/>
<stop offset="1" stop-color="#D2574B"/>
</linearGradient>
</defs>
</svg>
